<svg xmlns="http://www.w3.org/2000/svg" width="256" height="256" fill="none"><path fill="#000" d="M97.82 254.917c-4.22-1.001-7.752-3.341-12.695-8.413-8.258-8.47-14.959-11.997-26.606-14.002-12.082-2.08-17.451-6.571-20.679-17.297-3.985-13.241-8.149-19.581-17.3-26.34-10.38-7.667-13.042-14.428-10.509-26.68 2.347-11.348 1.448-19.416-3.318-29.79-5.686-12.377-4.984-18.99 3.092-29.13 7.404-9.296 9.728-15.441 10.837-28.654 1.119-13.335 4.829-18.805 15.755-23.232 9.118-3.695 16.919-10.11 21.243-17.468 5.002-8.51 5.732-9.485 8.83-11.797 5-3.73 9.043-4.765 16.743-4.282 13.375.839 20.543-.767 29.525-6.614 11.711-7.624 18.812-7.624 30.523 0 8.981 5.847 16.15 7.453 29.525 6.614 12.648-.793 17.91 2.527 25.62 16.164 3.821 6.758 11.63 13.335 20.177 16.992 12.173 5.21 15.711 9.965 16.609 22.322.972 13.382 3.716 20.864 10.985 29.955 8.094 10.122 8.8 16.742 3.108 29.13-4.766 10.374-5.664 18.442-3.317 29.79 2.533 12.252-.13 19.013-10.51 26.68-9.15 6.759-13.315 13.099-17.299 26.34-3.228 10.726-8.597 15.217-20.68 17.297-11.671 2.009-18.38 5.547-26.605 14.029-9.118 9.404-15.654 10.955-28.401 6.741-10.426-3.446-18.453-3.461-28.837-.052-7.274 2.387-11.152 2.803-15.815 1.697Z" opacity=".2"/><path fill="#fff" d="M97.82 252.417c-4.22-1.001-7.752-3.341-12.695-8.413-8.258-8.47-14.959-11.997-26.606-14.002-12.082-2.08-17.451-6.571-20.679-17.297-3.985-13.241-8.149-19.581-17.3-26.34-10.38-7.667-13.042-14.428-10.509-26.68 2.347-11.348 1.448-19.416-3.318-29.79-5.686-12.377-4.984-18.99 3.092-29.13 7.404-9.296 9.728-15.441 10.837-28.654 1.119-13.335 4.829-18.805 15.755-23.232 9.118-3.695 16.919-10.11 21.243-17.468 5.002-8.51 5.732-9.485 8.83-11.797 5-3.73 9.043-4.765 16.743-4.282 13.375.839 20.543-.767 29.525-6.614 11.711-7.624 18.812-7.624 30.523 0 8.981 5.847 16.15 7.453 29.525 6.614 12.648-.793 17.91 2.527 25.62 16.164 3.821 6.758 11.63 13.335 20.177 16.992 12.173 5.21 15.711 9.965 16.609 22.322.972 13.382 3.716 20.864 10.985 29.955 8.094 10.122 8.8 16.742 3.108 29.13-4.766 10.374-5.664 18.442-3.317 29.79 2.533 12.252-.13 19.013-10.51 26.68-9.15 6.759-13.315 13.099-17.299 26.34-3.228 10.726-8.597 15.217-20.68 17.297-11.671 2.009-18.38 5.547-26.605 14.029-9.118 9.404-15.654 10.955-28.401 6.741-10.426-3.446-18.453-3.461-28.837-.052-7.274 2.387-11.152 2.803-15.815 1.697Z"/><path fill="#3DDC84" d="M173.127 117.813a3.235 3.235 0 0 1 1.497-4.33 3.236 3.236 0 0 1 4.33 1.497 3.234 3.234 0 0 1-1.498 4.33 3.234 3.234 0 0 1-4.329-1.497Zm15.662 32.193a3.235 3.235 0 0 1 1.496-4.33 3.236 3.236 0 0 1 4.331 1.497 3.236 3.236 0 0 1-1.497 4.33 3.235 3.235 0 0 1-4.33-1.497Zm1.367-41.77c-10.3-7.356-23.741-9.256-36.183-4.443l34.01 69.94c11.462-6.809 18.254-18.576 18.834-31.212l12.909.918a1.34 1.34 0 0 0 1.433-1.256c.049-.74-.5-1.384-1.255-1.432l-13.072-.934c-.128-5.505-1.448-11.123-4.071-16.531-2.624-5.392-6.229-9.899-10.48-13.408l7.34-10.866a1.344 1.344 0 0 0-2.22-1.513l-7.245 10.721"/><path fill="#4285F4" d="M158.8 134.569c-9.593 4.636-19.911 6.986-30.663 6.986a70.554 70.554 0 0 1-59.058-31.871 3.22 3.22 0 0 0-4.604-.821l-12.346 9.095c-1.4 1.03-1.722 2.994-.74 4.442a92.313 92.313 0 0 0 76.748 40.917c14.052 0 27.556-3.074 40.128-9.142l-9.465-19.606ZM128.024 57.194h6.68V42.433a6.684 6.684 0 0 0-6.68-6.68 6.684 6.684 0 0 0-6.68 6.68v14.76h6.68Z"/><path fill="#4285F4" d="m110.64 86.006-45.924 94.518a15.627 15.627 0 0 0-1.577 6.536l-.274 12.378c-.064 3.204 3.638 5.007 6.117 2.978l9.561-7.854a15.697 15.697 0 0 0 4.17-5.28l45.262-93.183-17.319-10.077-.016-.016ZM192.925 187.044a15.862 15.862 0 0 0-1.578-6.535L145.424 85.99 128.104 96.1l45.263 93.15a15.862 15.862 0 0 0 4.169 5.28l9.562 7.855c2.478 2.028 6.196.225 6.116-2.977l-.273-12.379-.016.016Z"/><path fill="#073042" d="M128.024 56.019c-11.059 0-20.041 8.997-20.041 20.04 0 11.042 8.998 20.04 20.041 20.04 11.042 0 20.04-8.998 20.04-20.04 0-11.043-8.998-20.04-20.04-20.04Zm0 31.066c-6.069 0-11.027-4.942-11.027-11.026 0-6.085 4.942-11.026 11.027-11.026 6.084 0 11.026 4.941 11.026 11.026 0 6.084-4.942 11.026-11.026 11.026Z"/></svg>