<svg width="256" height="256" viewBox="0 0 256 256" fill="none" xmlns="http://www.w3.org/2000/svg">
<path opacity="0.2" d="M97.8209 254.917C93.6003 253.916 90.0679 251.576 85.1245 246.504C76.8672 238.034 70.1663 234.507 58.5193 232.502C46.4371 230.422 41.068 225.931 37.84 215.205C33.8555 201.964 29.691 195.624 20.5409 188.865C10.1609 181.198 7.49764 174.437 10.0312 162.185C12.3778 150.837 11.4792 142.769 6.71336 132.395C1.02709 120.018 1.72904 113.405 9.80523 103.265C17.2092 93.9685 19.533 87.8238 20.6418 74.6105C21.7608 61.2764 25.4706 55.8058 36.3965 51.3786C45.515 47.6838 53.3156 41.2697 57.6404 33.9107C62.6415 25.4011 63.3716 24.4256 66.4702 22.1138C71.4704 18.3831 75.5133 17.3492 83.2129 17.8321C96.5878 18.6708 103.756 17.0648 112.738 11.2178C124.449 3.59407 131.55 3.59407 143.261 11.2178C152.242 17.0648 159.411 18.6708 172.786 17.8321C185.434 17.039 190.696 20.3592 198.406 33.9956C202.227 40.7536 210.036 47.3306 218.583 50.9882C230.756 56.198 234.294 60.9529 235.192 73.3095C236.164 86.6917 238.908 94.1738 246.177 103.265C254.271 113.387 254.977 120.007 249.285 132.395C244.519 142.769 243.621 150.837 245.968 162.185C248.501 174.437 245.838 181.198 235.458 188.865C226.308 195.624 222.143 201.964 218.159 215.205C214.931 225.931 209.562 230.422 197.479 232.502C185.808 234.511 179.099 238.049 170.874 246.531C161.756 255.935 155.22 257.486 142.473 253.272C132.047 249.826 124.02 249.811 113.636 253.22C106.362 255.607 102.484 256.023 97.8209 254.917Z" fill="black"/>
<path d="M97.8209 252.417C93.6003 251.416 90.0679 249.076 85.1245 244.004C76.8672 235.534 70.1663 232.007 58.5193 230.002C46.4371 227.922 41.068 223.431 37.84 212.705C33.8555 199.464 29.691 193.124 20.5409 186.365C10.1609 178.698 7.49764 171.937 10.0312 159.685C12.3778 148.337 11.4792 140.269 6.71336 129.895C1.02709 117.518 1.72904 110.905 9.80523 100.765C17.2092 91.4685 19.533 85.3238 20.6418 72.1105C21.7608 58.7764 25.4706 53.3058 36.3965 48.8786C45.515 45.1838 53.3156 38.7697 57.6404 31.4107C62.6415 22.9011 63.3716 21.9256 66.4702 19.6138C71.4704 15.8831 75.5133 14.8492 83.2129 15.3321C96.5878 16.1708 103.756 14.5648 112.738 8.71775C124.449 1.09408 131.55 1.09408 143.261 8.71775C152.242 14.5648 159.411 16.1708 172.786 15.3321C185.434 14.539 190.696 17.8592 198.406 31.4956C202.227 38.2536 210.036 44.8306 218.583 48.4882C230.756 53.698 234.294 58.4529 235.192 70.8095C236.164 84.1917 238.908 91.6738 246.177 100.765C254.271 110.887 254.977 117.507 249.285 129.895C244.519 140.269 243.621 148.337 245.968 159.685C248.501 171.937 245.838 178.698 235.458 186.365C226.308 193.124 222.143 199.464 218.159 212.705C214.931 223.431 209.562 227.922 197.479 230.002C185.808 232.011 179.099 235.549 170.874 244.031C161.756 253.435 155.22 254.986 142.473 250.772C132.047 247.326 124.02 247.311 113.636 250.72C106.362 253.107 102.484 253.523 97.8209 252.417Z" fill="white"/>
<path d="M173.127 117.813C172.338 116.204 173.014 114.272 174.624 113.483C176.234 112.694 178.165 113.371 178.954 114.98C179.743 116.59 179.067 118.521 177.456 119.31C175.847 120.099 173.916 119.423 173.127 117.813ZM188.789 150.006C188 148.396 188.676 146.465 190.285 145.676C191.896 144.887 193.827 145.563 194.616 147.173C195.405 148.783 194.728 150.714 193.119 151.503C191.509 152.292 189.578 151.616 188.789 150.006ZM190.156 108.236C179.856 100.88 166.415 98.9802 153.973 103.793L187.983 173.733C199.445 166.924 206.237 155.157 206.817 142.521L219.726 143.439C220.466 143.487 221.11 142.94 221.159 142.183C221.208 141.443 220.659 140.799 219.904 140.751L206.832 139.817C206.704 134.312 205.384 128.694 202.761 123.286C200.137 117.894 196.532 113.387 192.281 109.878L199.621 99.0124C200.041 98.4006 199.879 97.5637 199.268 97.1452C198.656 96.7268 197.819 96.8877 197.401 97.4993L190.156 108.22" fill="#3DDC84"/>
<path d="M158.8 134.569C149.207 139.205 138.889 141.555 128.137 141.555C103.911 141.555 81.9075 129.258 69.0786 109.684C68.0646 108.139 65.9719 107.769 64.475 108.863L52.129 117.958C50.7286 118.988 50.4066 120.952 51.3886 122.4C68.2415 147.559 96.7807 163.317 128.137 163.317C142.189 163.317 155.693 160.243 168.265 154.175L158.8 134.569Z" fill="#4285F4"/>
<path d="M128.024 57.1935H134.704V42.433C134.704 38.7469 131.71 35.753 128.024 35.753C124.338 35.753 121.344 38.7469 121.344 42.433V57.1935H128.024Z" fill="#4285F4"/>
<path d="M110.64 86.0063L64.7161 180.524C63.7182 182.569 63.1869 184.791 63.1387 187.06L62.8651 199.438C62.8007 202.642 66.5028 204.445 68.9817 202.416L78.5431 194.562C80.2976 193.129 81.7141 191.326 82.7121 189.282L127.975 96.0988L110.656 86.0223L110.64 86.0063Z" fill="#4285F4"/>
<path d="M192.925 187.044C192.876 184.775 192.33 182.553 191.347 180.509L145.424 85.9903L128.104 96.0988L173.367 189.249C174.365 191.293 175.782 193.08 177.536 194.529L187.098 202.384C189.576 204.412 193.294 202.609 193.214 199.407L192.941 187.028L192.925 187.044Z" fill="#4285F4"/>
<path d="M128.024 56.0186C116.965 56.0186 107.983 65.0164 107.983 76.0587C107.983 87.101 116.981 96.0988 128.024 96.0988C139.066 96.0988 148.064 87.101 148.064 76.0587C148.064 65.0164 139.066 56.0186 128.024 56.0186ZM128.024 87.0848C121.955 87.0848 116.997 82.1431 116.997 76.0587C116.997 69.9743 121.939 65.0326 128.024 65.0326C134.108 65.0326 139.05 69.9743 139.05 76.0587C139.05 82.1431 134.108 87.0848 128.024 87.0848Z" fill="#073042"/>
</svg>
