<svg xmlns="http://www.w3.org/2000/svg" width="167" height="167" fill="none"><path fill="#1793D1" fill-rule="evenodd" d="M83.063 0c-7.397 18.135-11.859 29.998-20.094 47.594 5.05 5.352 11.247 11.585 21.312 18.625-10.82-4.453-18.202-8.924-23.719-13.563C50.023 74.65 33.51 105.977 0 166.188c26.338-15.206 46.754-24.58 65.781-28.157a48.221 48.221 0 0 1-1.25-11.281l.031-.844c.418-16.874 9.196-29.85 19.594-28.969 10.398.882 18.481 15.283 18.063 32.157-.079 3.175-.437 6.229-1.063 9.062 18.821 3.682 39.019 13.032 65 28.032-5.123-9.432-9.695-17.934-14.062-26.032-6.879-5.331-14.053-12.27-28.688-19.781 10.059 2.614 17.261 5.629 22.875 9C101.883 46.713 98.288 35.729 83.062 0Z" clip-rule="evenodd"/></svg>