<svg xmlns="http://www.w3.org/2000/svg" xmlns:xlink="http://www.w3.org/1999/xlink" width="342.633" height="291.785" version="1.0"><defs><linearGradient id="a"><stop offset="0" style="stop-color:#fff;stop-opacity:1"/><stop offset="1" style="stop-color:#fff;stop-opacity:0"/></linearGradient><linearGradient id="b"><stop offset="0" style="stop-color:#fff;stop-opacity:1"/><stop offset="1" style="stop-color:#868686;stop-opacity:1"/></linearGradient><linearGradient xlink:href="#b" id="B" x1="227.665" x2="227.665" y1="217.851" y2="275.003" gradientUnits="userSpaceOnUse"/><linearGradient id="c"><stop offset="0" style="stop-color:#91c4b7;stop-opacity:1"/><stop offset="1" style="stop-color:#005f61;stop-opacity:1"/></linearGradient><linearGradient id="d"><stop offset="0" style="stop-color:#005f61;stop-opacity:1"/><stop offset="1" style="stop-color:#91c4b7;stop-opacity:1"/></linearGradient><linearGradient xlink:href="#d" id="x" x1="308.853" x2="270.577" y1="100.297" y2="-8.081" gradientUnits="userSpaceOnUse"/><linearGradient id="f"><stop offset="0" style="stop-color:#005f61;stop-opacity:1"/><stop offset="1" style="stop-color:#000;stop-opacity:1"/></linearGradient><linearGradient xlink:href="#f" id="t" x1="110.771" x2="145.468" y1="168.577" y2="151.577" gradientUnits="userSpaceOnUse"/><linearGradient id="g"><stop offset="0" style="stop-color:#fff;stop-opacity:1"/><stop offset="1" style="stop-color:#fff;stop-opacity:0"/></linearGradient><linearGradient id="h"><stop offset="0" style="stop-color:#c8c7c5;stop-opacity:1"/><stop offset="1" style="stop-color:#c8c7c5;stop-opacity:0"/></linearGradient><linearGradient xlink:href="#h" id="m" x1="173.704" x2="166.663" y1="267.111" y2="246.64" gradientTransform="translate(0 -2)" gradientUnits="userSpaceOnUse"/><linearGradient id="i"><stop offset="0" style="stop-color:#3e3e3e;stop-opacity:1"/><stop offset="1" style="stop-color:#3e3e3e;stop-opacity:0"/></linearGradient><linearGradient xlink:href="#i" id="j" x1="128.61" x2="138.612" y1="239.374" y2="267.795" gradientUnits="userSpaceOnUse"/><linearGradient xlink:href="#i" id="k" x1="128.61" x2="138.612" y1="239.374" y2="267.795" gradientUnits="userSpaceOnUse"/><linearGradient xlink:href="#i" id="l" x1="128.61" x2="138.612" y1="239.374" y2="267.795" gradientUnits="userSpaceOnUse"/><linearGradient xlink:href="#f" id="u" x1="110.771" x2="145.468" y1="168.577" y2="151.577" gradientUnits="userSpaceOnUse"/><linearGradient xlink:href="#f" id="v" x1="110.771" x2="145.468" y1="168.577" y2="151.577" gradientUnits="userSpaceOnUse"/><radialGradient xlink:href="#a" id="G" cx="143.596" cy="139.937" r="68.378" fx="143.596" fy="139.937" gradientTransform="matrix(1.33664 .0783 -.10786 1.84128 -33.247 -128.97)" gradientUnits="userSpaceOnUse"/><radialGradient xlink:href="#c" id="y" cx="228.55" cy="-6.509" r="111.431" fx="228.55" fy="-6.509" gradientTransform="matrix(1.54772 -.17694 .17682 1.54662 -129.86 38.786)" gradientUnits="userSpaceOnUse"/><radialGradient xlink:href="#g" id="q" cx="135.64" cy="12.001" r="161.653" fx="135.64" fy="12.001" gradientTransform="matrix(1.87047 -.64301 .25661 .74647 -116.69 109.712)" gradientUnits="userSpaceOnUse"/><radialGradient xlink:href="#g" id="n" cx="197.568" cy="252.718" r="166.51" fx="197.568" fy="252.718" gradientTransform="matrix(1.54333 -.10321 .09131 1.36539 -130.421 -95.005)" gradientUnits="userSpaceOnUse"/><radialGradient xlink:href="#g" id="o" cx="197.568" cy="252.718" r="166.51" fx="197.568" fy="252.718" gradientTransform="matrix(1.54333 -.10321 .09131 1.36539 -130.421 -95.005)" gradientUnits="userSpaceOnUse"/><radialGradient xlink:href="#g" id="p" cx="197.568" cy="252.718" r="166.51" fx="197.568" fy="252.718" gradientTransform="matrix(1.54333 -.10321 .09131 1.36539 -130.421 -95.005)" gradientUnits="userSpaceOnUse"/><radialGradient xlink:href="#g" id="r" cx="135.64" cy="12.001" r="161.653" fx="135.64" fy="12.001" gradientTransform="matrix(1.87047 -.64301 .25661 .74647 -116.69 109.712)" gradientUnits="userSpaceOnUse"/><radialGradient xlink:href="#g" id="s" cx="135.64" cy="12.001" r="161.653" fx="135.64" fy="12.001" gradientTransform="matrix(1.87047 -.64301 .25661 .74647 -116.69 109.712)" gradientUnits="userSpaceOnUse"/><filter id="F"><feGaussianBlur stdDeviation="1.215"/></filter><filter id="D" width="1.357" height="1.363" x="-.179" y="-.181"><feGaussianBlur stdDeviation="1.018"/></filter><filter id="A"><feGaussianBlur stdDeviation="1.635"/></filter><filter id="e"><feGaussianBlur stdDeviation="4.576"/></filter><mask id="E" maskUnits="userSpaceOnUse"><path d="M113.124 36.661c17.233 36.62 75.371 131.675 105.366 171.054-4.069 13.505-18.428 20.812-30.299 17.44L72.849 58.555c-.07-12.347 22.899-26.599 40.275-21.894z" style="fill:#7c858c"/></mask><mask id="C" maskUnits="userSpaceOnUse"><path d="M213.967 236.836c-1.975 1.501-5.717 14.758-3.574 17.84 3.186 4.586 22.424-12.698 20.661-17.246-1.813-4.675-15.357-1.412-17.087-.594zm-9.628-7.347 2.49 3.782s.69 1.044.295 3.403c-.615 3.69-3.175 13.259-3.325 21.123-.019.95-.92 9.503 7.219 7.07 8.14-2.433 24.968-17.859 28.332-24.693 3.364-6.834-.965-10.639-6.216-10.987-5.251-.35-13.346.22-17.069.848-3.723.628-3.493-.758-6.677-4.35-.239-.27-5.05 3.804-5.05 3.804z" clip-rule="evenodd" style="fill:#aaa;fill-rule:evenodd"/></mask><mask id="z" maskUnits="userSpaceOnUse"><path d="M95.108 61.776 244.59 10.309c15.666-5.394 32.738 2.933 38.132 18.599l39.799 115.58c5.394 15.666-2.932 32.738-18.598 38.131l-103.98 35.801L95.108 61.776z" style="fill:#2f6962"/></mask><mask id="w" maskUnits="userSpaceOnUse"><g style="fill:#2f6962;fill-opacity:1;filter:url(#e)"><path d="M17.749 121.529c-4.495-13.055 2.443-27.282 15.498-31.776l211.219-72.725c13.055-4.495 27.282 2.444 31.777 15.499l38.943 113.096c4.495 13.055-2.444 27.281-15.499 31.776l-211.22 72.724c-13.055 4.495-27.282-2.444-31.777-15.499L17.749 121.529z" style="fill:#2f6962;fill-opacity:1"/></g></mask></defs><path d="M11.004 141.618c-6.293-18.277 3.421-38.194 21.698-44.487l216.721-74.619c18.277-6.293 38.195 3.422 44.488 21.699l43.577 126.552c6.293 18.277-3.421 38.194-21.698 44.487L99.069 289.869c-18.277 6.292-38.195-3.422-44.488-21.699L11.004 141.618z" style="fill:#7c858c" transform="translate(3.229)"/><g style="opacity:1;fill:url(#j);fill-opacity:1" transform="translate(3.229)"><path d="M7.097 130.272c-6.294-18.277 3.421-38.194 21.698-44.487l216.722-74.619c18.277-6.293 38.194 3.422 44.488 21.699l43.577 126.552c6.293 18.277-3.421 38.194-21.698 44.487L95.162 278.523c-18.277 6.293-38.195-3.422-44.488-21.699L7.097 130.272z" style="fill:url(#k);fill-opacity:1"/></g><path d="m156.599 246.825 13.562-4.67 6.521 18.94-13.562 4.67-6.521-18.94zm25.041-8.622 13.562-4.67 6.521 18.939-13.562 4.67-6.521-18.939zm25.041-8.622 13.563-4.67 6.521 18.94-13.562 4.67-6.522-18.94zm25.042-8.623 13.562-4.67 6.521 18.94-13.562 4.67-6.521-18.94zm25.041-8.622 13.562-4.67 6.521 18.939-13.562 4.67-6.521-18.939zm-125.207 43.112 13.562-4.67 6.521 18.94-13.562 4.67-6.521-18.94z" clip-rule="evenodd" style="opacity:.7;fill:url(#m);fill-opacity:1;fill-rule:evenodd" transform="translate(3.229)"/><g style="opacity:1;fill:url(#n);fill-opacity:1" transform="translate(3.229)"><path d="M2.568 124.472c-6.293-18.277 3.421-38.194 21.698-44.487l221.25-76.178c18.277-6.292 38.195 3.422 44.488 21.699l41.752 121.253c6.293 18.277-3.421 38.194-21.698 44.487l-221.25 76.178c-18.277 6.293-38.195-3.422-44.488-21.699L2.568 124.472z" style="fill:url(#o);fill-opacity:1"/></g><path d="M1.917 122.581c-6.293-18.277 3.421-38.194 21.698-44.487l221.25-76.178c18.277-6.293 38.194 3.422 44.488 21.699l41.752 121.253c6.293 18.277-3.421 38.194-21.698 44.487l-221.25 76.178c-18.277 6.293-38.195-3.422-44.488-21.699L1.917 122.581z" style="fill:#7c858c" transform="translate(3.229)"/><g style="opacity:.9;fill:url(#q);fill-opacity:1" transform="translate(3.229)"><path d="M5.763 123.175C-.35 105.42 9.086 86.072 26.841 79.958L243.342 5.416c17.755-6.113 37.104 3.324 43.217 21.079l38.787 112.64c6.113 17.755-3.323 37.103-21.078 43.216L87.767 256.893c-17.755 6.113-37.103-3.324-43.217-21.079L5.763 123.175z" style="fill:url(#r);fill-opacity:1"/></g><path d="M7.427 123.74c-5.934-17.232 3.225-36.012 20.458-41.945L243.792 7.457c17.232-5.933 36.012 3.226 41.946 20.459l39.771 115.497c5.934 17.233-3.226 36.012-20.458 41.945L89.143 259.696c-17.233 5.933-36.012-3.227-41.946-20.459L7.427 123.74z" style="fill:#3e3e3e" transform="translate(3.229)"/><g style="fill:url(#t);fill-opacity:1" transform="translate(3.229)"><path d="M10.414 122.666C5.02 107 13.346 89.928 29.012 84.534L244.59 10.309c15.666-5.394 32.738 2.933 38.132 18.599l39.799 115.58c5.394 15.666-2.932 32.738-18.598 38.131L88.345 256.844c-15.666 5.394-32.738-2.933-38.133-18.599L10.414 122.666z" style="fill:url(#u);fill-opacity:1"/></g><g mask="url(#w)" style="fill:#3c857c;fill-opacity:1" transform="translate(-8.771 -4)"><path d="M10.414 122.666C5.02 107 13.346 89.928 29.012 84.534L244.59 10.309c15.666-5.394 32.738 2.933 38.132 18.599l39.799 115.58c5.394 15.666-2.932 32.738-18.598 38.131L88.345 256.844c-15.666 5.394-32.738-2.933-38.133-18.599L10.414 122.666z" style="fill:#3c857c;fill-opacity:1"/></g><path d="M30 102.111c-1.771-7.695 2.602-9.355 2.672-9.379 1.371-.472 6.183-1.554 7.316 1.737 1.025 2.977-4.531 7.82-9.583 9.56-5.015 1.727-12.469 1.364-13.494-1.613-1.133-3.291 3.325-5.401 4.696-5.873.069-.024 4.342-2.237 7.88 5.746.13.293.571.074.513-.178z" clip-rule="evenodd" style="fill:#ffe600;fill-rule:evenodd" transform="translate(3.229)"/><path d="M32.867 154.308c7.274 17.049 17.313 28.317 23.916 26.044 6.602-2.273 7.575-17.334 2.812-35.247-.367-3.303-.911-9.542-.275-13.127.464-2.615-.112-3.379-2.212-1.079-.634.694-1.14 1.345-1.514 2.022-7.335-18.703-18.159-31.442-25.141-29.038-6.982 2.404-7.669 19.106-1.934 38.36-.712-.304-1.51-.505-2.438-.662-3.071-.52-3.054.437-1.079 2.212 2.709 2.435 6.121 7.686 7.865 10.515z" style="fill:#000;fill-opacity:1" transform="translate(3.229)"/><path d="M30.621 139.494c5.498 15.966 14.795 27.243 20.766 25.187 5.971-2.056 6.355-16.666.857-32.632-5.498-15.966-14.795-27.243-20.766-25.187-5.971 2.056-6.354 16.665-.857 32.632zm23.197 28.556c.536 1.558 1.515 2.634 2.186 2.403.671-.231.78-1.681.243-3.239-.536-1.558-1.515-2.633-2.186-2.403-.67.231-.779 1.682-.243 3.239zm-4.7 1.619c.536 1.558 1.515 2.634 2.186 2.403.67-.231.779-1.681.243-3.239-.536-1.558-1.515-2.634-2.186-2.402-.671.23-.78 1.68-.243 3.238z" clip-rule="evenodd" style="fill:#fff;fill-opacity:1;fill-rule:evenodd" transform="translate(3.229)"/><ellipse cx="50.867" cy="163.328" rx="4.428" ry="2.142" style="fill:#ffe600" transform="scale(-1) rotate(-18.997 -977.831 313.696)"/><path d="M64.282 90.307c-1.771-7.695 2.603-9.355 2.672-9.379 1.371-.472 6.183-1.554 7.316 1.737 1.025 2.978-4.531 7.82-9.583 9.56-5.015 1.727-12.469 1.364-13.494-1.613-1.133-3.291 3.325-5.401 4.696-5.873.07-.024 4.342-2.237 7.88 5.746.13.292.572.074.513-.178z" clip-rule="evenodd" style="fill:#ffe600;fill-rule:evenodd" transform="translate(3.229)"/><path d="M67.15 142.503c7.274 17.049 17.313 28.317 23.916 26.044 6.602-2.273 7.575-17.333 2.812-35.247-.367-3.303-.911-9.542-.275-13.127.464-2.615-.112-3.379-2.212-1.079-.634.694-1.139 1.345-1.514 2.022-7.334-18.704-18.159-31.442-25.141-29.038-6.982 2.404-7.669 19.106-1.934 38.36-.712-.304-1.51-.505-2.438-.662-3.071-.52-3.054.437-1.079 2.211 2.709 2.436 6.121 7.687 7.865 10.516z" style="fill:#000;fill-opacity:1" transform="translate(3.229)"/><path d="M64.904 127.689c5.498 15.967 14.795 27.243 20.766 25.187 5.971-2.056 6.355-16.666.857-32.632-5.498-15.967-14.795-27.243-20.766-25.187-5.971 2.056-6.355 16.666-.857 32.632zm23.197 28.557c.536 1.558 1.515 2.633 2.186 2.402.671-.231.779-1.681.243-3.239-.537-1.558-1.515-2.633-2.186-2.402-.671.231-.779 1.681-.243 3.239zm-4.7 1.619c.536 1.558 1.515 2.633 2.185 2.402.67-.231.78-1.681.243-3.239-.536-1.558-1.515-2.633-2.186-2.402-.671.231-.779 1.681-.242 3.239z" clip-rule="evenodd" style="fill:#fff;fill-opacity:1;fill-rule:evenodd" transform="translate(3.229)"/><ellipse cx="85.149" cy="151.524" rx="4.428" ry="2.142" style="fill:#ffe600" transform="scale(-1) rotate(-18.997 -907.276 518.603)"/><path d="M98.565 78.502c-1.771-7.694 2.602-9.355 2.672-9.379 1.371-.472 6.183-1.554 7.316 1.736 1.025 2.978-4.531 7.82-9.583 9.56-5.015 1.727-12.469 1.364-13.494-1.613-1.133-3.291 3.325-5.401 4.696-5.873.069-.024 4.342-2.237 7.88 5.746.13.293.572.075.513-.177z" clip-rule="evenodd" style="fill:#ffe600;fill-rule:evenodd" transform="translate(3.229)"/><path d="M101.433 130.699c7.274 17.048 17.313 28.317 23.915 26.043 6.602-2.274 7.576-17.333 2.812-35.246-.367-3.303-.911-9.542-.275-13.127.464-2.615-.112-3.379-2.212-1.079-.634.695-1.139 1.345-1.514 2.022-7.334-18.703-18.159-31.441-25.14-29.038-6.982 2.404-7.669 19.106-1.934 38.36-.712-.303-1.51-.504-2.438-.662-3.071-.52-3.054.437-1.079 2.212 2.709 2.435 6.121 7.686 7.865 10.515z" style="fill:#000;fill-opacity:1" transform="translate(3.229)"/><path d="M99.187 115.885c5.498 15.967 14.795 27.243 20.766 25.187 5.971-2.056 6.355-16.666.857-32.632-5.498-15.967-14.795-27.243-20.766-25.187-5.971 2.056-6.355 16.665-.857 32.632zm23.197 28.556c.536 1.558 1.515 2.633 2.186 2.403.67-.231.779-1.681.243-3.239-.536-1.558-1.515-2.634-2.185-2.403-.671.232-.78 1.682-.244 3.239zm-4.701 1.619c.536 1.558 1.515 2.633 2.186 2.402.671-.23.78-1.681.243-3.239-.536-1.558-1.515-2.633-2.185-2.402-.671.231-.78 1.681-.244 3.239z" clip-rule="evenodd" style="fill:#fff;fill-opacity:1;fill-rule:evenodd" transform="translate(3.229)"/><ellipse cx="119.432" cy="139.72" rx="4.428" ry="2.142" style="fill:#ffe600" transform="scale(-1) rotate(-18.997 -836.718 723.513)"/><path d="M96.575 238.982c3.342 7.154 7.811 5.77 7.88 5.746 1.371-.472 5.829-2.583 4.696-5.873-1.025-2.977-8.385-3.373-13.437-1.633-5.015 1.727-10.665 6.602-9.64 9.579 1.133 3.291 5.946 2.208 7.316 1.736.07-.023 4.799-.91 2.672-9.379-.078-.31.403-.41.513-.176z" clip-rule="evenodd" style="fill:#ffe600;fill-rule:evenodd" transform="translate(3.229)"/><path d="M66.699 196.085c-4.764-17.913-3.791-32.973 2.812-35.247 6.602-2.273 16.641 8.995 23.915 26.043 1.744 2.829 5.156 8.08 7.865 10.514 1.976 1.775 1.992 2.732-1.079 2.212-.927-.157-1.726-.358-2.438-.662 5.735 19.254 5.048 35.956-1.934 38.36-6.982 2.404-17.806-10.334-25.141-29.038-.374.677-.88 1.328-1.514 2.022-2.1 2.3-2.675 1.536-2.212-1.079.637-3.583.093-9.822-.274-13.125z" style="fill:#000;fill-opacity:1" transform="translate(3.229)"/><path d="M74.049 209.142c-5.498-15.966-5.114-30.576.857-32.632 5.971-2.056 15.269 9.22 20.766 25.187 5.498 15.967 5.114 30.577-.857 32.633-5.971 2.054-15.268-9.222-20.766-25.188zm.699-36.785c-.536-1.558-.428-3.008.243-3.239.67-.231 1.649.845 2.185 2.403.537 1.558.427 3.008-.243 3.239-.67.231-1.649-.845-2.185-2.403zm-4.701 1.619c-.536-1.558-.427-3.008.243-3.239.67-.231 1.649.845 2.186 2.403.536 1.558.427 3.008-.243 3.239-.67.231-1.65-.845-2.186-2.403z" clip-rule="evenodd" style="fill:#fff;fill-opacity:1;fill-rule:evenodd" transform="translate(3.229)"/><ellipse cx="75.361" cy="177.986" rx="4.428" ry="2.142" style="fill:#ffe600" transform="scale(-1) rotate(-18.997 -1065.442 460.099)"/><path d="M130.858 227.178c3.341 7.154 7.81 5.77 7.88 5.746 1.371-.472 5.829-2.582 4.696-5.873-1.025-2.977-8.385-3.373-13.437-1.633-5.015 1.727-10.665 6.602-9.64 9.579 1.133 3.291 5.946 2.208 7.316 1.737.069-.024 4.799-.91 2.672-9.379-.078-.312.404-.412.513-.177z" clip-rule="evenodd" style="fill:#ffe600;fill-rule:evenodd" transform="translate(3.229)"/><path d="M100.982 184.281c-4.764-17.913-3.791-32.973 2.812-35.247 6.602-2.273 16.641 8.995 23.915 26.044 1.745 2.829 5.157 8.08 7.865 10.513 1.976 1.775 1.993 2.732-1.079 2.212-.927-.157-1.726-.358-2.438-.662 5.736 19.254 5.048 35.957-1.934 38.36-6.981 2.404-17.806-10.334-25.141-29.038-.374.678-.879 1.328-1.513 2.022-2.1 2.301-2.676 1.537-2.212-1.079.636-3.584.092-9.822-.275-13.125z" style="fill:#000;fill-opacity:1" transform="translate(3.229)"/><path d="M108.332 197.337c-5.498-15.966-5.114-30.576.857-32.632 5.971-2.056 15.268 9.22 20.766 25.187 5.498 15.966 5.114 30.576-.857 32.632-5.971 2.056-15.268-9.22-20.766-25.187zm.699-36.784c-.536-1.558-.428-3.008.243-3.239.671-.231 1.649.845 2.186 2.402.536 1.558.427 3.008-.243 3.239-.671.231-1.65-.845-2.186-2.402zm-4.701 1.618c-.536-1.558-.427-3.008.243-3.239.67-.231 1.649.845 2.185 2.402.536 1.557.428 3.008-.243 3.239-.671.231-1.649-.844-2.185-2.402z" clip-rule="evenodd" style="fill:#fff;fill-opacity:1;fill-rule:evenodd" transform="translate(3.229)"/><ellipse cx="109.643" cy="166.182" rx="4.428" ry="2.142" style="fill:#ffe600" transform="scale(-1) rotate(-18.997 -994.887 665.006)"/><path d="M165.141 215.373c3.342 7.154 7.811 5.77 7.88 5.746 1.371-.472 5.829-2.582 4.696-5.873-1.025-2.977-8.385-3.372-13.438-1.633-5.015 1.727-10.665 6.602-9.64 9.579 1.133 3.291 5.945 2.208 7.316 1.737.069-.024 4.799-.91 2.672-9.379-.078-.311.404-.411.514-.177z" clip-rule="evenodd" style="fill:#ffe600;fill-rule:evenodd" transform="translate(3.229)"/><path d="M135.265 172.476c-4.764-17.913-3.791-32.973 2.812-35.246 6.603-2.273 16.641 8.995 23.916 26.043 1.744 2.829 5.156 8.08 7.865 10.514 1.975 1.775 1.992 2.731-1.079 2.212-.927-.157-1.726-.358-2.438-.662 5.735 19.254 5.048 35.957-1.934 38.36-6.982 2.404-17.806-10.334-25.141-29.038-.374.678-.88 1.328-1.514 2.022-2.1 2.301-2.676 1.537-2.212-1.079.636-3.584.092-9.823-.275-13.126z" style="fill:#000;fill-opacity:1" transform="translate(3.229)"/><path d="M142.615 185.533c-5.498-15.967-5.114-30.577.857-32.633 5.971-2.056 15.269 9.221 20.766 25.187 5.497 15.966 5.114 30.576-.857 32.632-5.971 2.056-15.268-9.22-20.766-25.186zm.699-36.785c-.537-1.558-.428-3.008.243-3.239.671-.231 1.649.845 2.186 2.402.537 1.558.428 3.008-.243 3.239-.671.231-1.65-.844-2.186-2.402zm-4.701 1.619c-.536-1.558-.427-3.008.243-3.239.671-.231 1.649.845 2.186 2.402.537 1.558.428 3.008-.243 3.239-.671.231-1.65-.845-2.186-2.402z" clip-rule="evenodd" style="fill:#fff;fill-opacity:1;fill-rule:evenodd" transform="translate(3.229)"/><ellipse cx="143.926" cy="154.379" rx="4.429" ry="2.142" style="fill:#ffe600" transform="rotate(160.997 145.54 154.65)"/><path d="M95.108 61.776 244.59 10.309c15.666-5.394 32.738 2.933 38.132 18.599l39.799 115.58c5.394 15.666-2.932 32.738-18.598 38.131l-103.98 35.801L95.108 61.776z" style="fill:url(#x);fill-opacity:1" transform="translate(3.229)"/><path d="m97.289 65.035 149.077-51.329c13.362-4.601 27.924 2.502 32.525 15.864l39.859 115.756c4.602 13.362-2.5 27.923-15.863 32.524l-105.732 36.404L97.289 65.035z" style="fill:url(#y);fill-opacity:1" transform="translate(3.229)"/><path d="M127.052 43.547c17.233 36.62 72.865 128.908 102.86 168.287-2.858 14.11-18.673 23.308-29.809 18.791L84.761 64.024c-.07-12.347 22.06-27.271 42.291-20.477z" mask="url(#z)" style="opacity:1;fill:#25514b;filter:url(#A)" transform="translate(1.229)"/><path d="M218.304 241.188c-2.9 1.834-8.917 18.762-6.01 22.858 4.325 6.093 32.696-15.214 30.405-21.183-2.356-6.136-21.883-2.64-24.395-1.675zm-14.341-9.677 3.368 5.018s.934 1.385.252 4.412c-1.066 4.734-5.207 16.96-5.819 27.111-.074 1.226-1.793 12.229 9.964 9.517 11.758-2.711 36.593-21.745 41.746-30.395 5.153-8.65-.843-13.795-8.332-14.524-7.489-.73-19.089-.425-24.443.189-5.354.614-4.956-1.165-9.326-5.975-.327-.361-7.41 4.647-7.41 4.647z" clip-rule="evenodd" style="fill:#3e3e3e;fill-rule:evenodd" transform="translate(3.229)"/><path d="M216.503 238.52c-2.9 1.834-8.917 18.762-6.009 22.858 4.324 6.092 32.696-15.214 30.405-21.183-2.356-6.136-21.882-2.64-24.396-1.675zm-13.394-10.003 3.368 5.018s.934 1.385.252 4.412c-1.066 4.734-5.207 16.96-5.819 27.111-.074 1.226-1.793 12.229 9.964 9.517 11.758-2.711 36.593-21.745 41.746-30.395 5.153-8.65-.843-13.795-8.332-14.524-7.489-.73-19.089-.425-24.443.189-5.354.614-4.956-1.165-9.326-5.975-.328-.361-7.41 4.647-7.41 4.647z" clip-rule="evenodd" style="fill:url(#B);fill-opacity:1;fill-rule:evenodd" transform="translate(3.229)"/><path d="M214.776 227.853c-2.797 3.296-6.24 5.845-9.926 7.474.432-2.596-.374-3.792-.374-3.792l-3.368-5.018s7.083-5.008 7.41-4.647c3.294 3.624 3.879 5.527 6.258 5.983z" mask="url(#C)" style="fill:#54575a;fill-opacity:1;filter:url(#D)" transform="matrix(1.42953 .0531 -.0504 1.29187 -74.203 -78.805)"/><path d="M116.052 45.547c17.234 36.62 72.865 128.908 102.86 168.287-2.858 14.11-18.673 23.308-29.809 18.791L73.761 66.024c-.07-12.347 22.06-27.271 42.291-20.477z" style="fill:#c8c7c5" transform="translate(3.229)"/><path d="M113.124 44.661c17.233 36.62 75.371 131.675 105.366 171.054-4.069 13.505-18.428 20.812-30.299 17.44L72.849 66.555c-.07-12.347 22.899-26.599 40.275-21.894z" style="fill:#7c858c" transform="translate(3.229)"/><path d="M192.119 225.881 73.534 54.687c3.174-9.061 16.868-17.988 30.225-18.875 22.158 44.223 78.164 134.394 111.831 178.223-5.194 8.137-14.62 12.648-23.471 11.846z" mask="url(#E)" style="fill:#c8c7c5;filter:url(#F)" transform="translate(3.229 8)"/><path d="M203.927 231.912 80.383 53.463c3.583-3.084 8.164-5.73 13.116-7.479 6.902 12.484 25.22 44.608 54.336 88.542 22.713 34.272 46.085 68.024 64.139 91.973a26.314 26.314 0 0 1-8.047 5.413zm-3.597 1.245a24.467 24.467 0 0 1-4.223.733L75.218 59.278a23.677 23.677 0 0 1 2.494-3.23L200.33 233.157z" clip-rule="evenodd" style="fill:url(#G);fill-opacity:1;fill-rule:evenodd" transform="translate(3.229)"/></svg>