<svg xmlns="http://www.w3.org/2000/svg" xmlns:xlink="http://www.w3.org/1999/xlink" xml:space="preserve" width="1118.805" height="1276.516"><defs><linearGradient id="a"><stop offset="0" style="stop-color:#f05437;stop-opacity:1"/><stop offset="1" style="stop-color:#dd2177;stop-opacity:1"/></linearGradient><linearGradient id="b" x1="0" x2="1" y1="0" y2="0" gradientTransform="translate(1240.584 858.88) scale(65.28727)" gradientUnits="userSpaceOnUse" spreadMethod="pad"><stop offset="0" style="stop-opacity:1;stop-color:#ff512f"/><stop offset=".005" style="stop-opacity:1;stop-color:#ff512f"/><stop offset=".01" style="stop-opacity:1;stop-color:#ff512f"/><stop offset="1" style="stop-opacity:1;stop-color:#dd2476"/></linearGradient><linearGradient xlink:href="#a" id="c" x1="1000.019" x2="1011.332" y1="1478.693" y2="524.34" gradientUnits="userSpaceOnUse"/></defs><path d="m1271.917 882.068-31.333-18.081v-.249l31.333 18.096 2.759 1.601a24.438 24.438 0 0 1-2.759-1.367m33.513-47.744a22.95 22.95 0 0 1 .441 4.472v23.672c0 1.56-.151 3.078-.441 4.527z" style="fill:url(#b);stroke:none" transform="matrix(1.33333 0 0 -1.33333 -773.93 1971.59)"/><g style="fill:url(#c);fill-opacity:1" transform="matrix(1.33333 0 0 -1.33333 -773.93 1971.59)"><path d="m988.695 1475.66-396.928-229.155a22.634 22.634 0 0 1-11.319-19.614V773.109c0-8.088 4.307-15.57 11.319-19.614l213.681-123.356a22.7 22.7 0 0 1 22.638 0l68.42 39.517c15.087 8.71 15.087 30.491 0 39.2L705.447 819.141a22.658 22.658 0 0 0-11.318 19.601v230.742c0 17.419 18.855 28.309 33.955 19.6l260.625-150.451a22.605 22.605 0 0 1 22.623 0l196.388 113.376 32.864 18.979 31.333 18.081c13.747 7.937 30.6-.371 33.513-15.072.29-1.449.441-2.967.441-4.527v-23.672a22.95 22.95 0 0 0-.441-4.472 22.681 22.681 0 0 0-10.821-15.1l-54.025-31.195-34.08-19.683-195.172-112.7a22.636 22.636 0 0 0-22.637 0L794.089 975.017c-15.087 8.709-33.942-2.181-33.942-19.6v-79.021a22.648 22.648 0 0 1 11.305-19.601l217.257-125.399a22.61 22.61 0 0 1 22.623 0l196.388 113.377 27.978 16.15 4.886 2.815v.249l31.333 18.081c.911.525 1.835.98 2.759 1.367h.015c13.154 5.438 28.019-2.719 30.739-16.44.29-1.449.441-2.967.441-4.527v-23.672a22.95 22.95 0 0 0-.441-4.472 22.69 22.69 0 0 0-10.821-15.101l-54.025-31.193-320.53-184.835c-15.1-8.709-15.1-30.49-.015-39.214l68.656-39.641a22.63 22.63 0 0 1 22.637 0l396.915 229.155a22.647 22.647 0 0 1 11.305 19.6v453.796a22.65 22.65 0 0 1-11.305 19.614l-396.915 229.155a22.594 22.594 0 0 1-11.313 3.033 22.653 22.653 0 0 1-11.324-3.033m0-405.776-203.771 117.655c-15.087 8.71-15.087 30.49 0 39.201l203.771 117.669a22.667 22.667 0 0 0 22.637 0l203.758-117.669c15.087-8.711 15.087-30.491 0-39.201l-203.758-117.655a22.595 22.595 0 0 0-11.313-3.034 22.654 22.654 0 0 0-11.324 3.034" style="fill:url(#c);stroke:none;fill-opacity:1"/></g></svg>