<svg width="310" height="310" viewBox="0 0 310 310" fill="none" xmlns="http://www.w3.org/2000/svg">
<path d="M299.98 61.0017C299.189 60.3288 298.178 59.9725 297.14 60.0017C294.3 60.0017 290.64 61.9217 288.68 63.0017L287.89 63.4017C284.586 65.0027 280.988 65.9081 277.32 66.0617C273.56 66.1817 270.32 66.4017 266.1 66.8317C241.1 69.4117 229.95 88.5717 219.21 107.102C213.37 117.182 207.33 127.602 199.05 135.672C197.331 137.33 195.507 138.877 193.59 140.302C185.02 146.692 174.26 151.202 165.85 154.422C157.78 157.502 148.99 160.272 140.48 162.952C132.7 165.402 125.34 167.712 118.58 170.232C115.53 171.362 112.94 172.232 110.65 172.992C104.5 174.992 100.05 176.522 93.57 180.992C91.04 182.722 88.5 184.592 86.77 185.992C81.6187 190.099 77.0619 194.902 73.23 200.262C69.9306 205.211 66.1196 209.8 61.86 213.952C60.5 215.292 58.06 215.952 54.43 215.952C50.16 215.952 45 215.072 39.52 214.142C34.04 213.212 28.06 212.142 23.06 212.142C18.99 212.142 15.89 212.802 13.56 214.142C13.56 214.142 9.66 216.422 8 219.372L9.62 220.102C12.1336 221.466 14.4625 223.146 16.55 225.102C18.7117 227.116 21.1291 228.838 23.74 230.222C24.5807 230.541 25.3441 231.036 25.98 231.672C25.29 232.672 24.29 233.962 23.24 235.342C17.47 242.892 14.11 247.662 16.04 250.262C16.9639 250.745 17.9979 250.98 19.04 250.942C31.63 250.942 38.38 247.672 46.94 243.532C49.41 242.332 51.94 241.092 54.94 239.832C59.94 237.662 65.32 234.202 71.02 230.542C78.57 225.692 86.38 220.672 93.94 218.242C100.169 216.342 106.658 215.431 113.17 215.542C121.17 215.542 129.59 216.612 137.71 217.652C143.77 218.432 150.03 219.232 156.18 219.652C158.57 219.792 160.78 219.862 162.94 219.862C165.816 219.87 168.69 219.719 171.55 219.412L172.23 219.172C176.55 216.522 178.57 210.832 180.52 205.332C181.78 201.792 182.84 198.612 184.52 196.592C184.62 196.49 184.731 196.4 184.85 196.322C184.929 196.278 185.02 196.262 185.109 196.276C185.198 196.291 185.279 196.335 185.34 196.402C185.358 196.454 185.358 196.51 185.34 196.562C184.34 218.072 175.67 231.722 166.92 243.862L160.98 250.092C160.98 250.092 169.16 250.092 173.82 248.292C190.82 243.212 203.66 232.012 213 214.152C215.302 209.568 217.358 204.864 219.16 200.062C219.32 199.662 220.8 198.922 220.65 200.992C220.65 201.602 220.57 202.282 220.52 202.992C220.52 203.412 220.46 203.842 220.44 204.272C220.19 207.272 219.44 213.612 219.44 213.612L224.69 210.802C237.35 202.802 247.11 186.662 254.51 161.552C257.6 151.092 259.85 140.702 261.84 131.552C264.22 120.552 266.27 111.122 268.62 107.462C272.31 101.722 277.94 97.8417 283.39 94.0717C284.14 93.5617 284.88 93.0717 285.61 92.5317C292.47 87.7217 299.28 82.1717 300.77 71.8217V71.5917C301.91 63.8717 300.98 61.9517 299.98 61.0017Z" fill="white"/>
</svg>
