<svg xmlns="http://www.w3.org/2000/svg" width="190" height="190" fill="none"><path fill="#1F305F" fill-rule="evenodd" d="M180.09 36c-2.73.09-1.94 1.32-7.85 2.78-5.97 1.47-13.19.57-19.61 3.27-16.8 7.04-19.52 34.26-39.53 44.79-13.12 7.41-26.5 9.11-38.46 12.86-9.6 3.85-15.57 6.4-22.61 12.47-5.46 4.71-6.79 9.28-12.5 15.19-5.79 7.87-27.74.88-33.39 10.75 2.98 1.93 4.7 2.46 9.93 1.77-1.08 2.05-7.96 4.75-6.71 7.77 0 0 16.63 3.03 30.65-5.43 6.54-2.66 12.67-8.29 22.83-9.64 13.16-1.75 27.99 2.76 43.9 4.03-3.29 6.5-6.68 10.34-10.31 15.7-1.12 1.21.96 2.28 4.82 1.55 6.94-1.72 11.97-3.58 16.96-7.03 6.51-4.49 9.31-8.6 14.8-15.11 4.77 7.65 21.59 9.33 25.04 2.72-6.42-2.72-7.79-16.87-5.59-22.98 2.6-5.82 4.47-14.05 6.57-21.7 1.89-6.89 3.06-17.4 5.32-22.78 2.7-6.69 7.95-8.78 11.89-12.33 3.94-3.55 7.86-6.51 7.74-14.63-.04-2.64-1.4-4.1-3.89-4.02Z" clip-rule="evenodd"/><path fill="#C0765A" d="M11.09 146.27c10.31.31 13.11.04 21.26-3.5 6.93-3.01 16.2-11.12 24.39-13.74 12.02-3.86 24.91-3.28 37.7-1.77 4.28.51 8.58 1.22 11.65.89 4.79-2.94 5.02-10.92 7.99-11.56-.81 15.44-7.43 25.32-14.05 34.28 13.95-2.46 23.27-11.17 28.91-21.95 1.71-3.27 4.55-8.62 5.85-12.3 1.03 2.44-1.34 3.99-.23 6.65 8.98-7.41 13.22-15.85 16.86-28.21 4.22-14.3 8.55-26.59 11.27-30.82 2.65-4.13 6.78-6.68 10.55-9.32 4.28-3.01 8.11-6.14 8.77-11.87-4.52-.42-5.56-1.46-6.23-3.74-2.26 1.27-4.34 1.55-6.69 1.62-2.04.06-4.28-.03-7.02.25-22.63 2.32-23.68 24.44-40.13 40.68-1.06 1.03-2.87 2.55-4.07 3.45-5.08 3.79-10.52 5.87-16.25 8.06-9.28 3.54-18.08 4.57-26.78 7.63-6.39 2.24-12.33 4.81-17.58 8.4-1.31.9-3.09 2.5-4.23 3.43-3.08 2.52-5.1 5.31-7.06 8.19-2.02 2.96-3.96 6.01-6.93 8.92-4.81 4.72-22.77 1.38-29.1 5.76-.7.49-1.27 1.07-1.65 1.77 3.45 1.57 5.76.61 9.73 1.04.49 3.79-8.22 6.03-6.93 7.76Z"/><path fill="#1F305F" fill-rule="evenodd" d="M155.09 50.52c3.2 2.78 9.92.55 8.72-4.98-4.98-.42-7.86 1.27-8.72 4.98Z" clip-rule="evenodd"/><path fill="#1F305F" d="M177.09 44.05c-.85 1.79-2.48 4.09-2.48 8.64-.01.78-.59 1.32-.6.11.04-4.45 1.22-6.37 2.47-8.89.57-1.03.92-.61.61.14ZM176.09 43.38c-1.01 1.7-3.43 4.81-3.82 9.35-.07.78-.71 1.26-.61.06.44-4.42 2.37-7.19 3.84-9.6.66-.98.97-.53.59.19ZM175.09 42.49c-1.15 1.61-4.87 5.35-5.65 9.83-.14.77-.81 1.19-.61.01.81-4.37 4.02-7.81 5.68-10.08.74-.93 1.02-.45.58.24Z"/><path fill="#1F305F" d="M175.09 41.49c-1.36 1.44-5.8 6.2-7.2 10.53-.25.74-.97 1.07-.61-.08 1.41-4.22 5.3-8.76 7.27-10.77.87-.81 1.07-.29.54.32Z"/></svg>