<svg width="190" height="190" viewBox="0 0 190 190" fill="none" xmlns="http://www.w3.org/2000/svg">
<path fill-rule="evenodd" clip-rule="evenodd" d="M180.09 36C177.36 36.09 178.15 37.32 172.24 38.78C166.27 40.25 159.05 39.35 152.63 42.05C135.83 49.09 133.11 76.31 113.1 86.84C99.9801 94.25 86.6001 95.95 74.6401 99.7C65.0401 103.55 59.07 106.1 52.03 112.17C46.57 116.88 45.24 121.45 39.53 127.36C33.74 135.23 11.7901 128.24 6.14014 138.11C9.12014 140.04 10.8401 140.57 16.0701 139.88C14.9901 141.93 8.11011 144.63 9.36011 147.65C9.36011 147.65 25.9901 150.68 40.0101 142.22C46.5501 139.56 52.6801 133.93 62.8401 132.58C76.0001 130.83 90.8301 135.34 106.74 136.61C103.45 143.11 100.06 146.95 96.4301 152.31C95.3101 153.52 97.3901 154.59 101.25 153.86C108.19 152.14 113.22 150.28 118.21 146.83C124.72 142.34 127.52 138.23 133.01 131.72C137.78 139.37 154.6 141.05 158.05 134.44C151.63 131.72 150.26 117.57 152.46 111.46C155.06 105.64 156.93 97.41 159.03 89.76C160.92 82.87 162.09 72.36 164.35 66.98C167.05 60.29 172.3 58.2 176.24 54.65C180.18 51.1 184.1 48.14 183.98 40.02C183.94 37.38 182.58 35.92 180.09 36Z" fill="#1F305F"/>
<path d="M11.0901 146.27C21.4001 146.58 24.2001 146.31 32.3501 142.77C39.2801 139.76 48.5501 131.65 56.7401 129.03C68.7601 125.17 81.6501 125.75 94.4401 127.26C98.7201 127.77 103.02 128.48 106.09 128.15C110.88 125.21 111.11 117.23 114.08 116.59C113.27 132.03 106.65 141.91 100.03 150.87C113.98 148.41 123.3 139.7 128.94 128.92C130.65 125.65 133.49 120.3 134.79 116.62C135.82 119.06 133.45 120.61 134.56 123.27C143.54 115.86 147.78 107.42 151.42 95.06C155.64 80.76 159.97 68.47 162.69 64.24C165.34 60.11 169.47 57.56 173.24 54.92C177.52 51.91 181.35 48.78 182.01 43.05C177.49 42.63 176.45 41.59 175.78 39.31C173.52 40.58 171.44 40.86 169.09 40.93C167.05 40.99 164.81 40.9 162.07 41.18C139.44 43.5 138.39 65.62 121.94 81.86C120.88 82.89 119.07 84.41 117.87 85.31C112.79 89.1 107.35 91.18 101.62 93.37C92.3401 96.91 83.5401 97.94 74.8401 101C68.4501 103.24 62.5101 105.81 57.2601 109.4C55.9501 110.3 54.17 111.9 53.03 112.83C49.95 115.35 47.9301 118.14 45.9701 121.02C43.9501 123.98 42.01 127.03 39.04 129.94C34.23 134.66 16.2701 131.32 9.94006 135.7C9.24006 136.19 8.67004 136.77 8.29004 137.47C11.74 139.04 14.0501 138.08 18.0201 138.51C18.5101 142.3 9.80009 144.54 11.0901 146.27Z" fill="#C0765A"/>
<path fill-rule="evenodd" clip-rule="evenodd" d="M155.09 50.52C158.29 53.3 165.01 51.07 163.81 45.54C158.83 45.12 155.95 46.81 155.09 50.52Z" fill="#1F305F"/>
<path d="M177.09 44.05C176.24 45.84 174.61 48.14 174.61 52.69C174.6 53.47 174.02 54.01 174.01 52.8C174.05 48.35 175.23 46.43 176.48 43.91C177.05 42.88 177.4 43.3 177.09 44.05Z" fill="#1F305F"/>
<path d="M176.09 43.38C175.08 45.08 172.66 48.19 172.27 52.73C172.2 53.51 171.56 53.99 171.66 52.79C172.1 48.37 174.03 45.6 175.5 43.19C176.16 42.21 176.47 42.66 176.09 43.38Z" fill="#1F305F"/>
<path d="M175.09 42.49C173.94 44.1 170.22 47.84 169.44 52.32C169.3 53.09 168.63 53.51 168.83 52.33C169.64 47.96 172.85 44.52 174.51 42.25C175.25 41.32 175.53 41.8 175.09 42.49Z" fill="#1F305F"/>
<path d="M175.09 41.49C173.73 42.93 169.29 47.69 167.89 52.02C167.64 52.76 166.92 53.09 167.28 51.94C168.69 47.72 172.58 43.18 174.55 41.17C175.42 40.36 175.62 40.88 175.09 41.49Z" fill="#1F305F"/>
</svg>
