<svg xmlns="http://www.w3.org/2000/svg" xmlns:xlink="http://www.w3.org/1999/xlink" width="96" height="96" version="1.0"><defs><linearGradient id="d" x1="45.448" x2="45.448" y1="92.54" y2="7.017" gradientTransform="scale(1.00587 .99417)" gradientUnits="userSpaceOnUse"><stop offset="0" style="stop-color:#000;stop-opacity:1"/><stop offset="1" style="stop-color:#000;stop-opacity:.58823532"/></linearGradient><linearGradient id="a"><stop offset="0" style="stop-color:#fff;stop-opacity:1"/><stop offset="1" style="stop-color:#fff;stop-opacity:0"/></linearGradient><linearGradient id="b"><stop offset="0" style="stop-color:#2295c5;stop-opacity:1"/><stop offset="1" style="stop-color:#68d8f4;stop-opacity:1"/></linearGradient><linearGradient xlink:href="#a" id="k" x1="36.357" x2="36.357" y1="6" y2="63.893" gradientUnits="userSpaceOnUse"/><linearGradient xlink:href="#a" id="n" x1="48" x2="48" y1="20.221" y2="138.661" gradientUnits="userSpaceOnUse"/><linearGradient xlink:href="#b" id="j" x1="48" x2="48" y1="90" y2="5.988" gradientUnits="userSpaceOnUse"/><linearGradient id="c" x1="45.448" x2="45.448" y1="92.54" y2="7.017" gradientTransform="matrix(1.00587 0 0 .99417 100 0)" gradientUnits="userSpaceOnUse"><stop offset="0" style="stop-color:#000;stop-opacity:1"/><stop offset="1" style="stop-color:#000;stop-opacity:.58823532"/></linearGradient><linearGradient xlink:href="#c" id="f" x1="32.251" x2="32.251" y1="6.132" y2="90.239" gradientTransform="matrix(1.0238 0 0 1.0119 -1.143 -98.071)" gradientUnits="userSpaceOnUse"/><linearGradient xlink:href="#c" id="g" x1="32.251" x2="32.251" y1="6.132" y2="90.239" gradientTransform="matrix(1.0238 0 0 1.0119 -1.143 -98.071)" gradientUnits="userSpaceOnUse"/><linearGradient xlink:href="#c" id="h" x1="32.251" x2="32.251" y1="6.132" y2="90.239" gradientTransform="matrix(1.0238 0 0 1.0119 -1.143 -98.071)" gradientUnits="userSpaceOnUse"/><linearGradient xlink:href="#c" id="i" x1="32.251" x2="32.251" y1="6.132" y2="90.239" gradientTransform="translate(0 -97)" gradientUnits="userSpaceOnUse"/><linearGradient xlink:href="#c" id="e" x1="32.251" x2="32.251" y1="6.132" y2="90.239" gradientTransform="matrix(1.0238 0 0 1.0119 -1.143 -98.071)" gradientUnits="userSpaceOnUse"/><radialGradient xlink:href="#a" id="l" cx="48" cy="90.172" r="42" fx="48" fy="90.172" gradientTransform="matrix(1.15731 0 0 .9959 -7.551 .197)" gradientUnits="userSpaceOnUse"/><clipPath id="m"><rect width="84" height="84" x="6" y="6" rx="6" ry="6" style="fill:#fff;fill-opacity:1;fill-rule:nonzero;stroke:none"/></clipPath></defs><g style="display:inline" transform="scale(1 -1)"><path d="M12-95.031c-5.511 0-10.031 4.52-10.031 10.031v71C1.969-8.489 6.489-3.969 12-3.969h72c5.511 0 10.031-4.52 10.031-10.031v-71c0-5.511-4.52-10.031-10.031-10.031H12z" style="opacity:.07999998;fill:url(#e);fill-opacity:1;fill-rule:nonzero;stroke:none;display:inline"/><path d="M12-94.031c-4.972 0-9.031 4.06-9.031 9.031v71c0 4.972 4.06 9.031 9.031 9.031h72c4.972 0 9.031-4.06 9.031-9.031v-71c0-4.972-4.06-9.031-9.031-9.031H12z" style="opacity:.1;fill:url(#f);fill-opacity:1;fill-rule:nonzero;stroke:none;display:inline"/><path d="M12-93c-4.41 0-8 3.59-8 8v71c0 4.41 3.59 8 8 8h72c4.41 0 8-3.59 8-8v-71c0-4.41-3.59-8-8-8H12z" style="opacity:.2;fill:url(#g);fill-opacity:1;fill-rule:nonzero;stroke:none;display:inline"/><rect width="86" height="85" x="5" y="-92" rx="7" ry="7" style="opacity:.3;fill:url(#h);fill-opacity:1;fill-rule:nonzero;stroke:none;display:inline"/><rect width="84" height="84" x="6" y="-91" rx="6" ry="6" style="opacity:.45;fill:url(#i);fill-opacity:1;fill-rule:nonzero;stroke:none;display:inline"/></g><rect width="84" height="84" x="6" y="6" rx="6" ry="6" style="fill:url(#j);fill-opacity:1;fill-rule:nonzero;stroke:none"/><path d="M12 6c-3.324 0-6 2.676-6 6v72c0 .335.041.65.094.969.048.295.097.597.187.875l.032.094c.098.287.234.547.375.812.144.274.315.536.5.781a6.105 6.105 0 0 0 2.094 1.781c.278.14.573.247.874.344a4.843 4.843 0 0 1-.719-.375c-.007-.004-.023.005-.03 0-.033-.02-.063-.042-.095-.062-.12-.077-.23-.164-.343-.25-.106-.081-.214-.161-.313-.25a5.042 5.042 0 0 1-.5-.531 5.092 5.092 0 0 1-.312-.407c-.025-.038-.039-.086-.063-.125-.065-.103-.13-.204-.187-.312a5.371 5.371 0 0 1-.282-.625c-.007-.022-.023-.04-.03-.063-.033-.092-.037-.187-.063-.281-.03-.107-.07-.203-.094-.313A5.098 5.098 0 0 1 7 85V13c0-2.782 2.218-5 5-5h72c2.782 0 5 2.218 5 5v72c0 .364-.052.721-.125 1.063a4.896 4.896 0 0 1-.156.593c-.008.022-.024.04-.031.063a5.482 5.482 0 0 1-.22.531c-.04.083-.078.17-.124.25-.055.097-.127.188-.188.281a5.092 5.092 0 0 1-.312.406 5.05 5.05 0 0 1-.469.5l-.031.032a4.818 4.818 0 0 1-.438.344c-.102.073-.204.153-.312.218-.008.005-.024-.004-.031 0a4.843 4.843 0 0 1-.72.375c.302-.097.597-.204.876-.344a6.105 6.105 0 0 0 2.094-1.78c.184-.246.355-.508.5-.782a5.69 5.69 0 0 0 .374-.813l.032-.093c.09-.278.139-.58.187-.875.053-.318.094-.634.094-.969V12c0-3.324-2.676-6-6-6H12z" style="opacity:.5;fill:url(#k);fill-opacity:1;fill-rule:nonzero;stroke:none"/><path d="M12 90c-3.324 0-6-2.676-6-6V12c0-.335.041-.65.094-.969.048-.295.097-.597.187-.875l.032-.094a5.69 5.69 0 0 1 .375-.812c.144-.274.315-.536.5-.781a6.105 6.105 0 0 1 2.094-1.781c.278-.14.573-.247.874-.344-.256.1-.486.236-.719.375-.007.004-.023-.005-.03 0-.033.019-.063.042-.095.062-.12.077-.23.164-.343.25-.106.081-.214.161-.313.25a5.042 5.042 0 0 0-.5.532c-.107.13-.218.265-.312.406-.025.038-.039.086-.063.125-.065.103-.13.204-.187.312a5.371 5.371 0 0 0-.282.625c-.007.022-.023.04-.03.063-.033.092-.037.187-.063.281-.03.107-.07.203-.094.313A5.098 5.098 0 0 0 7 11v72c0 2.782 2.218 5 5 5h72c2.782 0 5-2.218 5-5V11c0-.364-.052-.721-.125-1.063a4.896 4.896 0 0 0-.156-.593c-.008-.022-.024-.04-.031-.063a5.482 5.482 0 0 0-.22-.531c-.04-.083-.078-.17-.124-.25-.055-.097-.127-.188-.188-.281a5.092 5.092 0 0 0-.312-.406 5.05 5.05 0 0 0-.469-.5l-.031-.032a4.818 4.818 0 0 0-.438-.343c-.102-.074-.204-.154-.312-.22-.008-.004-.024.005-.031 0a4.843 4.843 0 0 0-.72-.374c.302.097.597.204.876.343a6.105 6.105 0 0 1 2.094 1.782c.184.245.355.507.5.781.14.265.276.525.374.813l.032.093c.09.278.139.58.187.875.053.318.094.634.094.969v72c0 3.324-2.676 6-6 6H12z" style="opacity:.2;fill:url(#l);fill-opacity:1;fill-rule:nonzero;stroke:none"/><path d="M11.625 9c-.682.077-1.263.355-1.688.781-.424.427-.677.962-.812 1.469-.265.99-.176 1.969-.125 2.719v.062c.02 23.456-.042 46.917.031 70.375a.981.981 0 0 0 .031.25c.194.76.606 1.37 1.157 1.75.55.38 1.173.531 1.75.594 1.152.125 2.294-.05 2.969 0A.981.981 0 0 0 15 87c23.128-.02 46.275.042 69.406-.031a.981.981 0 0 0 .25-.031c.76-.194 1.37-.606 1.75-1.157.38-.55.531-1.173.594-1.75.125-1.152-.05-2.294 0-2.969A.981.981 0 0 0 87 81c-.02-23.128.042-46.275-.031-69.406a.981.981 0 0 0-.031-.25c-.194-.76-.606-1.37-1.157-1.75-.55-.38-1.173-.531-1.75-.594-1.152-.125-2.294.05-2.969 0A.981.981 0 0 0 81 9H11.75a.981.981 0 0 0-.125 0zM21 21h20.906c-.151.372-.293.736-.375 1.094-.226.985-.337 1.915-.593 2.531a.981.981 0 0 0-.032.125c-1.812 6.96-3.642 13.917-5.468 20.875-.936-3.166-1.82-6.373-2.938-9.5a.981.981 0 0 0-.125-.219c-.808-1.192-2.168-1.468-3.25-1.468-1.082-.001-2.065.156-2.688.062a.981.981 0 0 0-.156 0H21V21zm26.563 0h9.343c-.152.277-.32.542-.375.875l-.062-.031c-1.457 4.164-2.92 8.333-4.375 12.5C50.61 29.909 49.178 25.42 47.562 21zm14.656 0H75v29.5h-3.031c-3.252-9.824-6.406-19.688-9.75-29.5zM21 45.5h2.906c2.968 9.824 5.958 19.737 8.907 29.5H21V45.5zm38.313 1.656c1.387 4.231 2.734 8.48 4.218 12.688a.981.981 0 0 0 .125.25c.803 1.189 2.142 1.466 3.219 1.468 1.077.003 2.069-.155 2.688-.062a.981.981 0 0 0 .156 0H75V75H39.125c2.235-8.368 4.43-16.748 6.625-25.125 1.175 3.581 2.299 7.197 3.656 10.75a.981.981 0 0 0 .094.219c1.533 2.203 5.004 1.13 5.438-1.375L55 59.5c1.457-4.108 2.88-8.228 4.313-12.344z" style="opacity:.05;fill:#005a80;fill-opacity:1;fill-rule:nonzero;stroke:none"/><path d="M11.75 9.969c-1.983.223-1.882 2.512-1.781 3.998.02 23.48-.042 46.964.031 70.44.58 2.284 3.29 1.495 5.012 1.624 23.13-.02 46.267.042 69.394-.031 2.285-.58 1.496-3.29 1.625-5.012-.02-23.13.042-46.267-.031-69.394-.58-2.285-3.29-1.496-5.012-1.625H11.75zm8.281 10.062h23.75c-1.544 1.1-1.27 3.348-1.945 4.966-2.1 8.067-4.225 16.127-6.336 24.19-1.328-4.233-2.453-8.57-3.938-12.718-1.173-1.731-3.546-.737-5.283-1H20.03V20.03zm25.719 0h30.219V51.47H71.25c-3.345-10.09-6.57-20.224-10-30.282-1-1.675-3.67-.888-3.838.985l-5.318 15.203c-1.936-5.577-3.636-11.26-5.688-16.781-.16-.244-.417-.407-.656-.563zm13.594 24.063c1.724 5.136 3.328 10.343 5.125 15.437 1.164 1.726 3.525.74 5.252 1h6.248V75.97H37.875c2.63-9.813 5.162-19.67 7.75-29.5 1.583 4.593 2.958 9.285 4.688 13.812 1.072 1.541 3.574.684 3.746-1.108 1.78-5.02 3.533-10.05 5.285-15.08zm-39.313.437h4.594c3.16 10.465 6.363 21.047 9.5 31.438H20.031V44.53z" style="opacity:.1;fill:#005a80;fill-opacity:1;fill-rule:nonzero;stroke:none"/><path d="M11.906 11.063a.932.932 0 0 0-.844.937v72a.932.932 0 0 0 .938.938h72a.932.932 0 0 0 .938-.938V12a.932.932 0 0 0-.938-.938H12a.932.932 0 0 0-.094 0zm7.031 7.874h58.126v33.626h-6.594l-7.75-23.594-2.313-7a.932.932 0 0 0-1.75-.032l-2.437 6.97-4.157 11.843-3.75-11.25-2.656-8a.932.932 0 0 0-1.781.031l-2.125 8.157-6.156 23.53L31.312 39a.932.932 0 0 0-.03 0l-.563-1.781a.932.932 0 0 0-.875-.657H18.937V18.939zm40.438 21.75 5.375 16.376.563 1.718a.932.932 0 0 0 .874.657H77.064v17.624H18.937V43.438h6.47l7.124 23.53 2.563 8.5a.932.932 0 0 0 1.812-.03l2.25-8.594L45.5 42.625l3.25 9.813 2.313 6.937a.932.932 0 0 0 1.75.031L55.25 52.5l4.125-11.813z" style="opacity:.3;fill:#005a80;fill-opacity:1;fill-rule:nonzero;stroke:none"/><path d="M12 12v72h72V12H12zm6 6h60v35.5h-8.188l-7.968-24.25-2.313-7-2.437 6.969-5.032 14.375-4.624-13.813-2.657-8-2.125 8.157-7 26.78-5.25-17.437-.562-1.781H18V18zm41.406 19.813 6.219 18.968.563 1.719H78V78H18V42.5h8.125l7.313 24.188 2.562 8.5 2.25-8.594 7.125-27.219 4.25 12.781 2.313 6.938 2.437-6.907 5.031-14.374z" style="fill:#fff;fill-opacity:1;fill-rule:nonzero;stroke:none"/><rect width="66" height="66" x="15" y="15" clip-path="url(#m)" rx="12" ry="12" style="opacity:.1;fill:url(#n);fill-opacity:1;fill-rule:nonzero;stroke:#fff;stroke-width:.5;stroke-linecap:round;stroke-linejoin:miter;stroke-miterlimit:4;stroke-opacity:1;stroke-dasharray:none;stroke-dashoffset:0;filter:url(#filter3794)"/></svg>