<svg width="34" height="34" viewBox="0 0 34 34" fill="none" xmlns="http://www.w3.org/2000/svg">
<path d="M2.826 0C1.413 0 0 1.413 0 2.826V12.717C0 14.13 1.413 15.543 2.826 15.543C4.239 15.543 5.652 14.13 5.652 12.717V8.478L8.478 11.304V15.543H12.717V14.13C12.673 13.192 13.142 12.723 14.13 12.717H15.543V8.478H11.304L8.478 5.652H12.717C14.13 5.652 15.543 4.239 15.543 2.826C15.543 1.413 14.13 0 12.717 0M21.195 0C19.782 0 18.369 1.413 18.369 2.826C18.369 4.239 19.782 5.652 21.195 5.652H25.434L22.608 8.478H18.369V12.717H19.782C20.72 12.673 21.189 13.142 21.195 14.13V15.543H25.434V11.304L28.26 8.478V12.717C28.26 14.13 29.673 15.543 31.086 15.543C32.499 15.543 33.912 14.13 33.912 12.717V2.826C33.912 1.413 32.499 0 31.086 0M8.478 18.369V22.608C8.478 24.021 9.891 25.434 11.304 25.434H15.543V21.195H14.13C13.192 21.239 12.723 20.77 12.717 19.782V18.369M21.195 18.369V19.782C21.239 20.72 20.77 21.189 19.782 21.195H18.369V25.434H22.608L25.434 28.26H21.195C19.782 28.26 18.369 29.673 18.369 31.086C18.369 32.499 19.782 33.912 21.195 33.912H31.086C32.499 33.912 33.912 32.499 33.912 31.086V21.195C33.912 19.782 32.499 18.369 31.086 18.369C29.673 18.369 28.26 19.782 28.26 21.195V25.434L25.434 22.608V18.369" fill="url(#paint0_linear_16_9)"/>
<defs>
<linearGradient id="paint0_linear_16_9" x1="16.956" y1="0" x2="16.956" y2="33.912" gradientUnits="userSpaceOnUse">
<stop stop-color="#FFD619"/>
<stop offset="1" stop-color="#FEB907"/>
</linearGradient>
</defs>
</svg>
