<svg xmlns="http://www.w3.org/2000/svg" width="34" height="34" fill="none"><path fill="url(#a)" d="M2.826 0C1.413 0 0 1.413 0 2.826v9.891c0 1.413 1.413 2.826 2.826 2.826s2.826-1.413 2.826-2.826V8.478l2.826 2.826v4.239h4.239V14.13c-.044-.938.425-1.407 1.413-1.413h1.413V8.478h-4.239L8.478 5.652h4.239c1.413 0 2.826-1.413 2.826-2.826S14.13 0 12.717 0m8.478 0c-1.413 0-2.826 1.413-2.826 2.826s1.413 2.826 2.826 2.826h4.239l-2.826 2.826h-4.239v4.239h1.413c.938-.044 1.407.425 1.413 1.413v1.413h4.239v-4.239l2.826-2.826v4.239c0 1.413 1.413 2.826 2.826 2.826s2.826-1.413 2.826-2.826V2.826C33.912 1.413 32.499 0 31.086 0M8.478 18.369v4.239c0 1.413 1.413 2.826 2.826 2.826h4.239v-4.239H14.13c-.938.044-1.407-.425-1.413-1.413v-1.413m8.478 0v1.413c.044.938-.425 1.407-1.413 1.413h-1.413v4.239h4.239l2.826 2.826h-4.239c-1.413 0-2.826 1.413-2.826 2.826s1.413 2.826 2.826 2.826h9.891c1.413 0 2.826-1.413 2.826-2.826v-9.891c0-1.413-1.413-2.826-2.826-2.826s-2.826 1.413-2.826 2.826v4.239l-2.826-2.826v-4.239"/><defs><linearGradient id="a" x1="16.956" x2="16.956" y1="0" y2="33.912" gradientUnits="userSpaceOnUse"><stop stop-color="#FFD619"/><stop offset="1" stop-color="#FEB907"/></linearGradient></defs></svg>